<svg xmlns="http://www.w3.org/2000/svg" width="252" height="39" viewBox="0 0 252 39">
    <g fill="#0A0A0A" fill-rule="nonzero">
        <path d="M252 36.706a1.22 1.22 0 0 1-.41.92 1.28 1.28 0 0 1-.9.38h-15.373a1.39 1.39 0 0 1-1.3-1.31V2.25a1.13 1.13 0 0 1 1.3-1.26h15.373A1.14 1.14 0 0 1 252 2.25l-.01 3.659c.004.352-.146.473-.41.706a1.28 1.28 0 0 1-.9.39h-9.38c-.872 0-1.31.634-1.31 1.474v6.13c0 .813.438 1.387 1.31 1.38h7.377c.88 0 1.316.25 1.31 1.09v3.582a1.26 1.26 0 0 1-.38.92 1.28 1.28 0 0 1-.93.38H241.3c-.87 0-1.31-.102-1.31.738l.01 8.029c0 .84.436 1.26 1.31 1.26h9.379a1.39 1.39 0 0 1 1.31 1.3v3.417zM213.945 5.744a1.1 1.1 0 0 1-.327.923c-.248.24-.85.35-1.19.297h-4.565c-.314.006-1.267.135-1.486.36a1.1 1.1 0 0 0-.38.81v28.659c-.276.929.276 1.21-.474 1.21h-4.655c-.334 0-.455 0-.657-.139s-.232-.167-.188-.501V8.155c0-.78-.38-1.17-1.13-1.17l-5.915-.021c-.335.043-.427-.071-.665-.31a1.08 1.08 0 0 1-.303-.91v-3.06c-.042-.33.074-1.158.312-1.389.238-.23.328-.335.656-.281h19.47c.84 0 1.517.89 1.517 1.67l-.02 3.06zM171.98 36.69c0 .87-.228 1.31-1.068 1.31h-3.651a1.14 1.14 0 0 1-1.26-1.31V2.26A1.11 1.11 0 0 1 167.26 1h3.55c.347-.051.607.065.855.313a1.11 1.11 0 0 1 .313.947v34.43zM145.26 28.49a9 9 0 0 1-2.86 7c-2.027 1.784-4.672 2.619-7.37 2.51-3.19.162-6.251-1.132-8.23-3.64a17.17 17.17 0 0 1-2.71-5.86 1 1 0 0 1 .72-1.44l3.34-1.13a2.13 2.13 0 0 1 .4 0 1.13 1.13 0 0 1 1.17.86c1.02 3.753 2.79 5.63 5.31 5.63a4 4 0 0 0 3-1.06 3.88 3.88 0 0 0 1.06-2.86c0-1.593-1.23-3.457-3.69-5.59-2.253-1.893-4.52-3.787-6.8-5.68-2.467-2.433-3.7-4.837-3.7-7.21a8.4 8.4 0 0 1 2.88-6.71 9.49 9.49 0 0 1 6.49-2.3 9.31 9.31 0 0 1 7.66 3.7 13.35 13.35 0 0 1 2.25 4.41 1.88 1.88 0 0 1 0 .4 1.06 1.06 0 0 1-.81 1.08l-2.93.94a.8.8 0 0 1-.36.09 1.13 1.13 0 0 1-1.13-.81c-1.333-3.187-2.91-4.78-4.73-4.78a3.21 3.21 0 0 0-2.5 1.22 4.07 4.07 0 0 0-1.06 2.75c0 1.233 1.26 2.873 3.78 4.92 4.087 3.333 6.42 5.283 7 5.85 2.547 2.587 3.82 5.157 3.82 7.71zM103.957 5.73a1.1 1.1 0 0 1-.327.923c-.247.24-.85.35-1.19.297h-4.565c-.313.006-1.267.135-1.485.36a1.1 1.1 0 0 0-.38.81v28.66c-.276.928.275 1.21-.475 1.21H90.88c-.333 0-.455 0-.656-.14-.202-.138-.233-.167-.189-.501V8.142c0-.78-.38-1.17-1.13-1.17L82.99 6.95c-.334.044-.427-.071-.664-.31a1.08 1.08 0 0 1-.303-.91V2.67c-.042-.329.073-1.158.311-1.388.239-.23.329-.335.656-.282h19.47c.84 0 1.517.89 1.517 1.67l-.02 3.06zM61.999 28.35a9.21 9.21 0 0 1-2.93 6.82c-1.829 1.857-4.445 2.871-7.05 2.842h-1.13a9.533 9.533 0 0 1-6.929-2.842 9.25 9.25 0 0 1-2.9-6.82V2.17A1 1 0 0 1 42.2 1h3.631c.327-.066.712.055.948.29.237.235.295.552.232.88v25.5a5.06 5.06 0 0 0 1.25 3.42c.706.896 2.048 1.425 3.189 1.44 1.116-.023 2.658-.553 3.336-1.44a5.09 5.09 0 0 0 1.23-3.42V2.17c0-.78.4-1.17 1.21-1.17h3.503c.33-.002.646.128.88.36a1.1 1.1 0 0 1 .39.81v26.18zM20.99 28.35a9.38 9.38 0 0 1-2.81 6.85c-1.784 1.853-4.258 2.814-6.83 2.772h-1.7c-2.572.043-5.047-.918-6.83-2.772A9.37 9.37 0 0 1 0 28.35V10.6a9.22 9.22 0 0 1 2.82-6.8 9.33 9.33 0 0 1 6.83-2.79h1.7a9.34 9.34 0 0 1 6.83 2.79 9.23 9.23 0 0 1 2.81 6.8v17.75zm-6.992-16.58a5.27 5.27 0 0 0-1.13-3.42c-.628-.866-1.263-1.381-2.332-1.39-1.089.017-1.748.543-2.392 1.42a5.16 5.16 0 0 0-1.17 3.4v15.63a5 5 0 0 0 1.17 3.33c.65.867 1.308 1.384 2.392 1.4 1.065-.005 1.698-.513 2.332-1.37a5.1 5.1 0 0 0 1.14-3.36l-.01-15.64z"/>
    </g>
</svg>
